<mxfile host="app.diagrams.net" agent="Mozilla/5.0 (Macintosh; Intel Mac OS X 10_15_7) AppleWebKit/537.36 (KHTML, like Gecko) Chrome/129.0.0.0 Safari/537.36" version="24.7.17">
  <diagram name="Page-1" id="xOBLhyYj3MYxFQuUd8QE">
    <mxGraphModel dx="2524" dy="1816" grid="1" gridSize="10" guides="1" tooltips="1" connect="1" arrows="1" fold="1" page="1" pageScale="1" pageWidth="850" pageHeight="1100" math="0" shadow="0">
      <root>
        <mxCell id="0" />
        <mxCell id="1" parent="0" />
        <mxCell id="wyu4AdQ__Pr_zeic_Puu-59" value="" style="whiteSpace=wrap;html=1;rounded=1;" vertex="1" parent="1">
          <mxGeometry x="850" y="-435" width="440" height="305" as="geometry" />
        </mxCell>
        <mxCell id="aTDH64eMhzKc28g5l6rG-189" value="" style="rounded=0;whiteSpace=wrap;html=1;" parent="1" vertex="1">
          <mxGeometry x="-232" y="544" width="80" height="30" as="geometry" />
        </mxCell>
        <mxCell id="gIsAO9YqK1bIzBQVH5LV-1" value="&lt;h1 style=&quot;margin-top: 0px;&quot;&gt;Use Cases and Cal.&lt;/h1&gt;&lt;p&gt;- Support balance transfer operation between two didgial wallets&lt;/p&gt;&lt;p&gt;&lt;b&gt;- 10^6 Transaction/Sec. If one node can do 1K TPS then we need 200 nodes&lt;/b&gt;&lt;/p&gt;&lt;p&gt;- Support reproducibility&lt;/p&gt;&lt;p&gt;- Reliability&lt;br&gt;- Accuracy 99.99%&lt;/p&gt;" style="text;html=1;whiteSpace=wrap;overflow=hidden;rounded=0;" parent="1" vertex="1">
          <mxGeometry x="-260" y="-840" width="360" height="210" as="geometry" />
        </mxCell>
        <mxCell id="aTDH64eMhzKc28g5l6rG-17" style="edgeStyle=orthogonalEdgeStyle;rounded=0;orthogonalLoop=1;jettySize=auto;html=1;entryX=0.5;entryY=0;entryDx=0;entryDy=0;" parent="1" source="gIsAO9YqK1bIzBQVH5LV-3" target="aTDH64eMhzKc28g5l6rG-14" edge="1">
          <mxGeometry relative="1" as="geometry">
            <Array as="points">
              <mxPoint x="1150" y="220" />
            </Array>
          </mxGeometry>
        </mxCell>
        <mxCell id="gIsAO9YqK1bIzBQVH5LV-3" value="Wallet Service" style="rounded=0;whiteSpace=wrap;html=1;" parent="1" vertex="1">
          <mxGeometry x="1070" y="150" width="80" height="30" as="geometry" />
        </mxCell>
        <mxCell id="aTDH64eMhzKc28g5l6rG-21" style="edgeStyle=orthogonalEdgeStyle;rounded=0;orthogonalLoop=1;jettySize=auto;html=1;entryX=0.25;entryY=0;entryDx=0;entryDy=0;" parent="1" source="aTDH64eMhzKc28g5l6rG-1" target="aTDH64eMhzKc28g5l6rG-15" edge="1">
          <mxGeometry relative="1" as="geometry" />
        </mxCell>
        <mxCell id="aTDH64eMhzKc28g5l6rG-1" value="Wallet Service" style="rounded=0;whiteSpace=wrap;html=1;" parent="1" vertex="1">
          <mxGeometry x="1200" y="150" width="80" height="30" as="geometry" />
        </mxCell>
        <mxCell id="aTDH64eMhzKc28g5l6rG-12" style="edgeStyle=orthogonalEdgeStyle;rounded=0;orthogonalLoop=1;jettySize=auto;html=1;entryX=0.5;entryY=0;entryDx=0;entryDy=0;" parent="1" source="aTDH64eMhzKc28g5l6rG-4" target="aTDH64eMhzKc28g5l6rG-1" edge="1">
          <mxGeometry relative="1" as="geometry" />
        </mxCell>
        <mxCell id="aTDH64eMhzKc28g5l6rG-4" value="Transfer Command" style="ellipse;whiteSpace=wrap;html=1;aspect=fixed;" parent="1" vertex="1">
          <mxGeometry x="1225" y="-30" width="30" height="30" as="geometry" />
        </mxCell>
        <mxCell id="aTDH64eMhzKc28g5l6rG-6" value="" style="endArrow=classic;html=1;rounded=0;exitX=0.5;exitY=1;exitDx=0;exitDy=0;entryX=0.5;entryY=0;entryDx=0;entryDy=0;" parent="1" source="aTDH64eMhzKc28g5l6rG-4" target="gIsAO9YqK1bIzBQVH5LV-3" edge="1">
          <mxGeometry width="50" height="50" relative="1" as="geometry">
            <mxPoint x="1220" y="80" as="sourcePoint" />
            <mxPoint x="1270" y="30" as="targetPoint" />
          </mxGeometry>
        </mxCell>
        <mxCell id="aTDH64eMhzKc28g5l6rG-7" value="A -&amp;gt; 1â‚¬ &amp;gt; B" style="edgeLabel;html=1;align=center;verticalAlign=middle;resizable=0;points=[];" parent="aTDH64eMhzKc28g5l6rG-6" connectable="0" vertex="1">
          <mxGeometry x="0.0188" y="-4" relative="1" as="geometry">
            <mxPoint as="offset" />
          </mxGeometry>
        </mxCell>
        <mxCell id="aTDH64eMhzKc28g5l6rG-34" style="edgeStyle=orthogonalEdgeStyle;rounded=0;orthogonalLoop=1;jettySize=auto;html=1;" parent="1" source="aTDH64eMhzKc28g5l6rG-8" target="aTDH64eMhzKc28g5l6rG-33" edge="1">
          <mxGeometry relative="1" as="geometry">
            <Array as="points">
              <mxPoint x="-50" y="280" />
              <mxPoint x="-50" y="175" />
            </Array>
          </mxGeometry>
        </mxCell>
        <mxCell id="aTDH64eMhzKc28g5l6rG-188" style="edgeStyle=orthogonalEdgeStyle;rounded=0;orthogonalLoop=1;jettySize=auto;html=1;entryX=0.5;entryY=0;entryDx=0;entryDy=0;" parent="1" source="aTDH64eMhzKc28g5l6rG-8" target="aTDH64eMhzKc28g5l6rG-25" edge="1">
          <mxGeometry relative="1" as="geometry">
            <Array as="points">
              <mxPoint x="-180" y="280" />
            </Array>
          </mxGeometry>
        </mxCell>
        <mxCell id="aTDH64eMhzKc28g5l6rG-8" value="Federation Info&amp;nbsp;&lt;br&gt;ZooKeeper&lt;br&gt;&lt;div&gt;&lt;br&gt;&lt;/div&gt;" style="shape=cylinder3;whiteSpace=wrap;html=1;boundedLbl=1;backgroundOutline=1;size=15;" parent="1" vertex="1">
          <mxGeometry x="-140" y="240" width="60" height="80" as="geometry" />
        </mxCell>
        <mxCell id="aTDH64eMhzKc28g5l6rG-13" value="Redis&amp;nbsp;&lt;br&gt;A balance" style="shape=parallelogram;perimeter=parallelogramPerimeter;whiteSpace=wrap;html=1;fixedSize=1;" parent="1" vertex="1">
          <mxGeometry x="1010" y="250" width="80" height="40" as="geometry" />
        </mxCell>
        <mxCell id="aTDH64eMhzKc28g5l6rG-14" value="Redis&amp;nbsp;&lt;br&gt;B balance" style="shape=parallelogram;perimeter=parallelogramPerimeter;whiteSpace=wrap;html=1;fixedSize=1;" parent="1" vertex="1">
          <mxGeometry x="1120" y="250" width="80" height="40" as="geometry" />
        </mxCell>
        <mxCell id="aTDH64eMhzKc28g5l6rG-15" value="Redis&amp;nbsp;&lt;br&gt;C balance" style="shape=parallelogram;perimeter=parallelogramPerimeter;whiteSpace=wrap;html=1;fixedSize=1;" parent="1" vertex="1">
          <mxGeometry x="1210" y="250" width="80" height="40" as="geometry" />
        </mxCell>
        <mxCell id="aTDH64eMhzKc28g5l6rG-22" value="Redis is &lt;b&gt;NOT&lt;/b&gt; Durable/Atomic and not transaction based for rollback/Commit" style="text;html=1;align=center;verticalAlign=middle;whiteSpace=wrap;rounded=0;" parent="1" vertex="1">
          <mxGeometry x="925" y="40" width="155" height="70" as="geometry" />
        </mxCell>
        <mxCell id="aTDH64eMhzKc28g5l6rG-29" style="edgeStyle=orthogonalEdgeStyle;rounded=0;orthogonalLoop=1;jettySize=auto;html=1;entryX=0;entryY=0.75;entryDx=0;entryDy=0;" parent="1" source="aTDH64eMhzKc28g5l6rG-24" target="aTDH64eMhzKc28g5l6rG-25" edge="1">
          <mxGeometry relative="1" as="geometry" />
        </mxCell>
        <mxCell id="aTDH64eMhzKc28g5l6rG-91" value="1" style="edgeLabel;html=1;align=center;verticalAlign=middle;resizable=0;points=[];" parent="aTDH64eMhzKc28g5l6rG-29" connectable="0" vertex="1">
          <mxGeometry x="-0.2178" y="-1" relative="1" as="geometry">
            <mxPoint as="offset" />
          </mxGeometry>
        </mxCell>
        <mxCell id="aTDH64eMhzKc28g5l6rG-24" value="Actor" style="shape=umlActor;verticalLabelPosition=bottom;verticalAlign=top;html=1;outlineConnect=0;" parent="1" vertex="1">
          <mxGeometry x="-360" y="540" width="30" height="60" as="geometry" />
        </mxCell>
        <mxCell id="aTDH64eMhzKc28g5l6rG-31" style="edgeStyle=orthogonalEdgeStyle;rounded=0;orthogonalLoop=1;jettySize=auto;html=1;" parent="1" source="aTDH64eMhzKc28g5l6rG-25" target="aTDH64eMhzKc28g5l6rG-30" edge="1">
          <mxGeometry relative="1" as="geometry" />
        </mxCell>
        <mxCell id="aTDH64eMhzKc28g5l6rG-92" value="2" style="edgeLabel;html=1;align=center;verticalAlign=middle;resizable=0;points=[];" parent="aTDH64eMhzKc28g5l6rG-31" connectable="0" vertex="1">
          <mxGeometry x="0.12" y="2" relative="1" as="geometry">
            <mxPoint as="offset" />
          </mxGeometry>
        </mxCell>
        <mxCell id="aTDH64eMhzKc28g5l6rG-147" value="2 / 8 / 14" style="edgeLabel;html=1;align=center;verticalAlign=middle;resizable=0;points=[];" parent="aTDH64eMhzKc28g5l6rG-31" connectable="0" vertex="1">
          <mxGeometry x="0.0533" y="2" relative="1" as="geometry">
            <mxPoint as="offset" />
          </mxGeometry>
        </mxCell>
        <mxCell id="aTDH64eMhzKc28g5l6rG-89" style="edgeStyle=orthogonalEdgeStyle;rounded=0;orthogonalLoop=1;jettySize=auto;html=1;entryX=0;entryY=1;entryDx=0;entryDy=0;" parent="1" source="aTDH64eMhzKc28g5l6rG-25" target="aTDH64eMhzKc28g5l6rG-87" edge="1">
          <mxGeometry relative="1" as="geometry" />
        </mxCell>
        <mxCell id="aTDH64eMhzKc28g5l6rG-90" value="3" style="edgeLabel;html=1;align=center;verticalAlign=middle;resizable=0;points=[];" parent="aTDH64eMhzKc28g5l6rG-89" connectable="0" vertex="1">
          <mxGeometry x="-0.7751" y="3" relative="1" as="geometry">
            <mxPoint as="offset" />
          </mxGeometry>
        </mxCell>
        <mxCell id="aTDH64eMhzKc28g5l6rG-149" style="edgeStyle=orthogonalEdgeStyle;rounded=0;orthogonalLoop=1;jettySize=auto;html=1;entryX=0;entryY=0.5;entryDx=0;entryDy=0;" parent="1" source="aTDH64eMhzKc28g5l6rG-25" target="aTDH64eMhzKc28g5l6rG-148" edge="1">
          <mxGeometry relative="1" as="geometry" />
        </mxCell>
        <mxCell id="aTDH64eMhzKc28g5l6rG-150" value="9" style="edgeLabel;html=1;align=center;verticalAlign=middle;resizable=0;points=[];" parent="aTDH64eMhzKc28g5l6rG-149" connectable="0" vertex="1">
          <mxGeometry x="-0.0629" y="2" relative="1" as="geometry">
            <mxPoint as="offset" />
          </mxGeometry>
        </mxCell>
        <mxCell id="aTDH64eMhzKc28g5l6rG-25" value="TCC/Saga&lt;br&gt;Coordinator" style="rounded=0;whiteSpace=wrap;html=1;" parent="1" vertex="1">
          <mxGeometry x="-220" y="550" width="80" height="30" as="geometry" />
        </mxCell>
        <mxCell id="aTDH64eMhzKc28g5l6rG-26" value="Orchestration for Saga to avoid complexity with Choreography and each node keep status table" style="text;html=1;align=center;verticalAlign=middle;whiteSpace=wrap;rounded=0;" parent="1" vertex="1">
          <mxGeometry x="-350" y="390" width="60" height="30" as="geometry" />
        </mxCell>
        <mxCell id="aTDH64eMhzKc28g5l6rG-27" value="" style="endArrow=classic;html=1;rounded=0;entryX=0.25;entryY=0;entryDx=0;entryDy=0;" parent="1" source="aTDH64eMhzKc28g5l6rG-26" target="aTDH64eMhzKc28g5l6rG-25" edge="1">
          <mxGeometry width="50" height="50" relative="1" as="geometry">
            <mxPoint x="-170" y="470" as="sourcePoint" />
            <mxPoint x="-120" y="420" as="targetPoint" />
          </mxGeometry>
        </mxCell>
        <mxCell id="aTDH64eMhzKc28g5l6rG-30" value="&lt;div&gt;Phase Status Table&lt;/div&gt;" style="shape=cylinder3;whiteSpace=wrap;html=1;boundedLbl=1;backgroundOutline=1;size=15;" parent="1" vertex="1">
          <mxGeometry x="-280" y="660" width="60" height="80" as="geometry" />
        </mxCell>
        <mxCell id="aTDH64eMhzKc28g5l6rG-32" value="" style="rounded=1;whiteSpace=wrap;html=1;" parent="1" vertex="1">
          <mxGeometry x="-20" y="190" width="820" height="340" as="geometry" />
        </mxCell>
        <mxCell id="aTDH64eMhzKc28g5l6rG-33" value="Partition 1 (contains Account A)" style="text;html=1;align=center;verticalAlign=middle;whiteSpace=wrap;rounded=0;" parent="1" vertex="1">
          <mxGeometry x="-20" y="160" width="130" height="30" as="geometry" />
        </mxCell>
        <mxCell id="aTDH64eMhzKc28g5l6rG-36" value="" style="rounded=1;whiteSpace=wrap;html=1;" parent="1" vertex="1">
          <mxGeometry x="10" y="360" width="580" height="50" as="geometry" />
        </mxCell>
        <mxCell id="aTDH64eMhzKc28g5l6rG-46" value="" style="edgeStyle=orthogonalEdgeStyle;rounded=0;orthogonalLoop=1;jettySize=auto;html=1;" parent="1" source="aTDH64eMhzKc28g5l6rG-38" target="aTDH64eMhzKc28g5l6rG-40" edge="1">
          <mxGeometry relative="1" as="geometry" />
        </mxCell>
        <mxCell id="aTDH64eMhzKc28g5l6rG-38" value="Command" style="rounded=0;whiteSpace=wrap;html=1;" parent="1" vertex="1">
          <mxGeometry x="20" y="367.5" width="90" height="35" as="geometry" />
        </mxCell>
        <mxCell id="aTDH64eMhzKc28g5l6rG-45" value="" style="edgeStyle=orthogonalEdgeStyle;rounded=0;orthogonalLoop=1;jettySize=auto;html=1;" parent="1" source="aTDH64eMhzKc28g5l6rG-39" target="aTDH64eMhzKc28g5l6rG-40" edge="1">
          <mxGeometry relative="1" as="geometry" />
        </mxCell>
        <mxCell id="aTDH64eMhzKc28g5l6rG-39" value="" style="ellipse;whiteSpace=wrap;html=1;aspect=fixed;" parent="1" vertex="1">
          <mxGeometry x="140" y="365" width="40" height="40" as="geometry" />
        </mxCell>
        <mxCell id="aTDH64eMhzKc28g5l6rG-44" style="edgeStyle=orthogonalEdgeStyle;rounded=0;orthogonalLoop=1;jettySize=auto;html=1;" parent="1" source="aTDH64eMhzKc28g5l6rG-40" target="aTDH64eMhzKc28g5l6rG-41" edge="1">
          <mxGeometry relative="1" as="geometry" />
        </mxCell>
        <mxCell id="aTDH64eMhzKc28g5l6rG-40" value="Event" style="rounded=0;whiteSpace=wrap;html=1;" parent="1" vertex="1">
          <mxGeometry x="210" y="367.5" width="90" height="35" as="geometry" />
        </mxCell>
        <mxCell id="aTDH64eMhzKc28g5l6rG-43" style="edgeStyle=orthogonalEdgeStyle;rounded=0;orthogonalLoop=1;jettySize=auto;html=1;" parent="1" source="aTDH64eMhzKc28g5l6rG-41" target="aTDH64eMhzKc28g5l6rG-42" edge="1">
          <mxGeometry relative="1" as="geometry" />
        </mxCell>
        <mxCell id="aTDH64eMhzKc28g5l6rG-41" value="" style="ellipse;whiteSpace=wrap;html=1;aspect=fixed;" parent="1" vertex="1">
          <mxGeometry x="330" y="365" width="40" height="40" as="geometry" />
        </mxCell>
        <mxCell id="aTDH64eMhzKc28g5l6rG-42" value="" style="shape=cylinder3;whiteSpace=wrap;html=1;boundedLbl=1;backgroundOutline=1;size=15;" parent="1" vertex="1">
          <mxGeometry x="430" y="365" width="30" height="40" as="geometry" />
        </mxCell>
        <mxCell id="aTDH64eMhzKc28g5l6rG-47" value="" style="rounded=1;whiteSpace=wrap;html=1;" parent="1" vertex="1">
          <mxGeometry x="10" y="430" width="580" height="50" as="geometry" />
        </mxCell>
        <mxCell id="aTDH64eMhzKc28g5l6rG-52" style="edgeStyle=orthogonalEdgeStyle;rounded=0;orthogonalLoop=1;jettySize=auto;html=1;" parent="1" source="aTDH64eMhzKc28g5l6rG-53" target="aTDH64eMhzKc28g5l6rG-55" edge="1">
          <mxGeometry relative="1" as="geometry" />
        </mxCell>
        <mxCell id="aTDH64eMhzKc28g5l6rG-81" style="edgeStyle=orthogonalEdgeStyle;rounded=0;orthogonalLoop=1;jettySize=auto;html=1;entryX=0.5;entryY=1;entryDx=0;entryDy=0;" parent="1" source="aTDH64eMhzKc28g5l6rG-53" target="aTDH64eMhzKc28g5l6rG-77" edge="1">
          <mxGeometry relative="1" as="geometry">
            <Array as="points">
              <mxPoint x="255" y="495" />
              <mxPoint x="640" y="495" />
            </Array>
          </mxGeometry>
        </mxCell>
        <mxCell id="aTDH64eMhzKc28g5l6rG-98" value="5" style="edgeLabel;html=1;align=center;verticalAlign=middle;resizable=0;points=[];" parent="aTDH64eMhzKc28g5l6rG-81" connectable="0" vertex="1">
          <mxGeometry x="-0.0433" y="-1" relative="1" as="geometry">
            <mxPoint x="1" as="offset" />
          </mxGeometry>
        </mxCell>
        <mxCell id="aTDH64eMhzKc28g5l6rG-53" value="Event" style="rounded=0;whiteSpace=wrap;html=1;" parent="1" vertex="1">
          <mxGeometry x="210" y="437.5" width="90" height="35" as="geometry" />
        </mxCell>
        <mxCell id="aTDH64eMhzKc28g5l6rG-54" style="edgeStyle=orthogonalEdgeStyle;rounded=0;orthogonalLoop=1;jettySize=auto;html=1;" parent="1" source="aTDH64eMhzKc28g5l6rG-55" target="aTDH64eMhzKc28g5l6rG-56" edge="1">
          <mxGeometry relative="1" as="geometry" />
        </mxCell>
        <mxCell id="aTDH64eMhzKc28g5l6rG-55" value="" style="ellipse;whiteSpace=wrap;html=1;aspect=fixed;" parent="1" vertex="1">
          <mxGeometry x="330" y="435" width="40" height="40" as="geometry" />
        </mxCell>
        <mxCell id="aTDH64eMhzKc28g5l6rG-56" value="" style="shape=cylinder3;whiteSpace=wrap;html=1;boundedLbl=1;backgroundOutline=1;size=15;" parent="1" vertex="1">
          <mxGeometry x="430" y="435" width="30" height="40" as="geometry" />
        </mxCell>
        <mxCell id="aTDH64eMhzKc28g5l6rG-57" value="" style="rounded=1;whiteSpace=wrap;html=1;" parent="1" vertex="1">
          <mxGeometry x="10" y="290" width="580" height="50" as="geometry" />
        </mxCell>
        <mxCell id="aTDH64eMhzKc28g5l6rG-62" style="edgeStyle=orthogonalEdgeStyle;rounded=0;orthogonalLoop=1;jettySize=auto;html=1;" parent="1" source="aTDH64eMhzKc28g5l6rG-63" target="aTDH64eMhzKc28g5l6rG-65" edge="1">
          <mxGeometry relative="1" as="geometry" />
        </mxCell>
        <mxCell id="aTDH64eMhzKc28g5l6rG-80" style="edgeStyle=orthogonalEdgeStyle;rounded=0;orthogonalLoop=1;jettySize=auto;html=1;entryX=0.5;entryY=0;entryDx=0;entryDy=0;" parent="1" source="aTDH64eMhzKc28g5l6rG-63" target="aTDH64eMhzKc28g5l6rG-69" edge="1">
          <mxGeometry relative="1" as="geometry">
            <Array as="points">
              <mxPoint x="255" y="275" />
              <mxPoint x="640" y="275" />
            </Array>
          </mxGeometry>
        </mxCell>
        <mxCell id="aTDH64eMhzKc28g5l6rG-99" value="5" style="edgeLabel;html=1;align=center;verticalAlign=middle;resizable=0;points=[];" parent="aTDH64eMhzKc28g5l6rG-80" connectable="0" vertex="1">
          <mxGeometry x="-0.0433" y="-2" relative="1" as="geometry">
            <mxPoint x="1" as="offset" />
          </mxGeometry>
        </mxCell>
        <mxCell id="aTDH64eMhzKc28g5l6rG-63" value="Event" style="rounded=0;whiteSpace=wrap;html=1;" parent="1" vertex="1">
          <mxGeometry x="210" y="297.5" width="90" height="35" as="geometry" />
        </mxCell>
        <mxCell id="aTDH64eMhzKc28g5l6rG-64" style="edgeStyle=orthogonalEdgeStyle;rounded=0;orthogonalLoop=1;jettySize=auto;html=1;" parent="1" source="aTDH64eMhzKc28g5l6rG-65" target="aTDH64eMhzKc28g5l6rG-66" edge="1">
          <mxGeometry relative="1" as="geometry" />
        </mxCell>
        <mxCell id="aTDH64eMhzKc28g5l6rG-65" value="" style="ellipse;whiteSpace=wrap;html=1;aspect=fixed;" parent="1" vertex="1">
          <mxGeometry x="330" y="295" width="40" height="40" as="geometry" />
        </mxCell>
        <mxCell id="aTDH64eMhzKc28g5l6rG-66" value="" style="shape=cylinder3;whiteSpace=wrap;html=1;boundedLbl=1;backgroundOutline=1;size=15;" parent="1" vertex="1">
          <mxGeometry x="430" y="295" width="30" height="40" as="geometry" />
        </mxCell>
        <mxCell id="aTDH64eMhzKc28g5l6rG-67" value="4 Raft" style="edgeStyle=orthogonalEdgeStyle;rounded=0;orthogonalLoop=1;jettySize=auto;html=1;entryX=0.5;entryY=1;entryDx=0;entryDy=0;" parent="1" source="aTDH64eMhzKc28g5l6rG-40" target="aTDH64eMhzKc28g5l6rG-63" edge="1">
          <mxGeometry relative="1" as="geometry" />
        </mxCell>
        <mxCell id="aTDH64eMhzKc28g5l6rG-68" value="4 Raft" style="edgeStyle=orthogonalEdgeStyle;rounded=0;orthogonalLoop=1;jettySize=auto;html=1;" parent="1" source="aTDH64eMhzKc28g5l6rG-40" target="aTDH64eMhzKc28g5l6rG-53" edge="1">
          <mxGeometry relative="1" as="geometry" />
        </mxCell>
        <mxCell id="aTDH64eMhzKc28g5l6rG-69" value="" style="ellipse;whiteSpace=wrap;html=1;aspect=fixed;" parent="1" vertex="1">
          <mxGeometry x="620" y="295" width="40" height="40" as="geometry" />
        </mxCell>
        <mxCell id="aTDH64eMhzKc28g5l6rG-70" value="" style="shape=cylinder3;whiteSpace=wrap;html=1;boundedLbl=1;backgroundOutline=1;size=15;" parent="1" vertex="1">
          <mxGeometry x="720" y="295" width="30" height="40" as="geometry" />
        </mxCell>
        <mxCell id="aTDH64eMhzKc28g5l6rG-71" style="edgeStyle=orthogonalEdgeStyle;rounded=0;orthogonalLoop=1;jettySize=auto;html=1;entryX=0;entryY=0.5;entryDx=0;entryDy=0;entryPerimeter=0;" parent="1" source="aTDH64eMhzKc28g5l6rG-69" target="aTDH64eMhzKc28g5l6rG-70" edge="1">
          <mxGeometry relative="1" as="geometry" />
        </mxCell>
        <mxCell id="aTDH64eMhzKc28g5l6rG-74" value="" style="ellipse;whiteSpace=wrap;html=1;aspect=fixed;" parent="1" vertex="1">
          <mxGeometry x="620" y="362.5" width="40" height="40" as="geometry" />
        </mxCell>
        <mxCell id="aTDH64eMhzKc28g5l6rG-86" style="edgeStyle=orthogonalEdgeStyle;rounded=0;orthogonalLoop=1;jettySize=auto;html=1;entryX=0.5;entryY=1;entryDx=0;entryDy=0;" parent="1" source="aTDH64eMhzKc28g5l6rG-75" target="aTDH64eMhzKc28g5l6rG-87" edge="1">
          <mxGeometry relative="1" as="geometry">
            <mxPoint x="-70" y="510" as="targetPoint" />
            <Array as="points">
              <mxPoint x="840" y="383" />
              <mxPoint x="840" y="560" />
              <mxPoint x="-50" y="560" />
            </Array>
          </mxGeometry>
        </mxCell>
        <mxCell id="aTDH64eMhzKc28g5l6rG-100" value="6&amp;nbsp; Push latest status to reverse proxy in real-time" style="edgeLabel;html=1;align=center;verticalAlign=middle;resizable=0;points=[];" parent="aTDH64eMhzKc28g5l6rG-86" connectable="0" vertex="1">
          <mxGeometry x="0.1618" y="-1" relative="1" as="geometry">
            <mxPoint as="offset" />
          </mxGeometry>
        </mxCell>
        <mxCell id="aTDH64eMhzKc28g5l6rG-75" value="" style="shape=cylinder3;whiteSpace=wrap;html=1;boundedLbl=1;backgroundOutline=1;size=15;" parent="1" vertex="1">
          <mxGeometry x="720" y="362.5" width="30" height="40" as="geometry" />
        </mxCell>
        <mxCell id="aTDH64eMhzKc28g5l6rG-76" style="edgeStyle=orthogonalEdgeStyle;rounded=0;orthogonalLoop=1;jettySize=auto;html=1;entryX=0;entryY=0.5;entryDx=0;entryDy=0;entryPerimeter=0;" parent="1" source="aTDH64eMhzKc28g5l6rG-74" target="aTDH64eMhzKc28g5l6rG-75" edge="1">
          <mxGeometry relative="1" as="geometry" />
        </mxCell>
        <mxCell id="aTDH64eMhzKc28g5l6rG-77" value="" style="ellipse;whiteSpace=wrap;html=1;aspect=fixed;" parent="1" vertex="1">
          <mxGeometry x="620" y="435" width="40" height="40" as="geometry" />
        </mxCell>
        <mxCell id="aTDH64eMhzKc28g5l6rG-78" value="" style="shape=cylinder3;whiteSpace=wrap;html=1;boundedLbl=1;backgroundOutline=1;size=15;" parent="1" vertex="1">
          <mxGeometry x="720" y="435" width="30" height="40" as="geometry" />
        </mxCell>
        <mxCell id="aTDH64eMhzKc28g5l6rG-79" style="edgeStyle=orthogonalEdgeStyle;rounded=0;orthogonalLoop=1;jettySize=auto;html=1;entryX=0;entryY=0.5;entryDx=0;entryDy=0;entryPerimeter=0;" parent="1" source="aTDH64eMhzKc28g5l6rG-77" target="aTDH64eMhzKc28g5l6rG-78" edge="1">
          <mxGeometry relative="1" as="geometry" />
        </mxCell>
        <mxCell id="aTDH64eMhzKc28g5l6rG-82" value="" style="endArrow=none;dashed=1;html=1;dashPattern=1 3;strokeWidth=2;rounded=0;" parent="1" edge="1">
          <mxGeometry width="50" height="50" relative="1" as="geometry">
            <mxPoint x="600" y="560" as="sourcePoint" />
            <mxPoint x="600" y="140" as="targetPoint" />
          </mxGeometry>
        </mxCell>
        <mxCell id="aTDH64eMhzKc28g5l6rG-83" value="Write" style="text;html=1;align=center;verticalAlign=middle;whiteSpace=wrap;rounded=0;" parent="1" vertex="1">
          <mxGeometry x="235" y="210" width="130" height="30" as="geometry" />
        </mxCell>
        <mxCell id="aTDH64eMhzKc28g5l6rG-84" value="Read" style="text;html=1;align=center;verticalAlign=middle;whiteSpace=wrap;rounded=0;" parent="1" vertex="1">
          <mxGeometry x="630" y="210" width="130" height="30" as="geometry" />
        </mxCell>
        <mxCell id="aTDH64eMhzKc28g5l6rG-85" value="" style="endArrow=none;dashed=1;html=1;dashPattern=1 3;strokeWidth=2;rounded=0;" parent="1" edge="1">
          <mxGeometry width="50" height="50" relative="1" as="geometry">
            <mxPoint x="770" y="555" as="sourcePoint" />
            <mxPoint x="770" y="135" as="targetPoint" />
          </mxGeometry>
        </mxCell>
        <mxCell id="aTDH64eMhzKc28g5l6rG-96" style="edgeStyle=orthogonalEdgeStyle;rounded=0;orthogonalLoop=1;jettySize=auto;html=1;entryX=0;entryY=0.5;entryDx=0;entryDy=0;" parent="1" source="aTDH64eMhzKc28g5l6rG-87" target="aTDH64eMhzKc28g5l6rG-38" edge="1">
          <mxGeometry relative="1" as="geometry">
            <Array as="points">
              <mxPoint x="-50" y="380" />
              <mxPoint x="-5" y="380" />
              <mxPoint x="-5" y="385" />
            </Array>
          </mxGeometry>
        </mxCell>
        <mxCell id="aTDH64eMhzKc28g5l6rG-97" value="4" style="edgeLabel;html=1;align=center;verticalAlign=middle;resizable=0;points=[];" parent="aTDH64eMhzKc28g5l6rG-96" connectable="0" vertex="1">
          <mxGeometry x="0.0435" y="4" relative="1" as="geometry">
            <mxPoint as="offset" />
          </mxGeometry>
        </mxCell>
        <mxCell id="aTDH64eMhzKc28g5l6rG-87" value="Reverse Proxy" style="ellipse;whiteSpace=wrap;html=1;aspect=fixed;" parent="1" vertex="1">
          <mxGeometry x="-70" y="420" width="40" height="40" as="geometry" />
        </mxCell>
        <mxCell id="aTDH64eMhzKc28g5l6rG-88" style="edgeStyle=orthogonalEdgeStyle;rounded=0;orthogonalLoop=1;jettySize=auto;html=1;entryX=0.675;entryY=0.1;entryDx=0;entryDy=0;entryPerimeter=0;" parent="1" source="aTDH64eMhzKc28g5l6rG-87" target="aTDH64eMhzKc28g5l6rG-25" edge="1">
          <mxGeometry relative="1" as="geometry" />
        </mxCell>
        <mxCell id="aTDH64eMhzKc28g5l6rG-146" value="7" style="edgeLabel;html=1;align=center;verticalAlign=middle;resizable=0;points=[];" parent="aTDH64eMhzKc28g5l6rG-88" connectable="0" vertex="1">
          <mxGeometry x="-0.2727" y="-2" relative="1" as="geometry">
            <mxPoint as="offset" />
          </mxGeometry>
        </mxCell>
        <mxCell id="aTDH64eMhzKc28g5l6rG-101" value="" style="rounded=1;whiteSpace=wrap;html=1;" parent="1" vertex="1">
          <mxGeometry x="-10" y="675" width="820" height="340" as="geometry" />
        </mxCell>
        <mxCell id="aTDH64eMhzKc28g5l6rG-102" value="Partition 2 (contains Account C)" style="text;html=1;align=center;verticalAlign=middle;whiteSpace=wrap;rounded=0;" parent="1" vertex="1">
          <mxGeometry x="-10" y="645" width="130" height="30" as="geometry" />
        </mxCell>
        <mxCell id="aTDH64eMhzKc28g5l6rG-103" value="" style="rounded=1;whiteSpace=wrap;html=1;" parent="1" vertex="1">
          <mxGeometry x="20" y="845" width="580" height="50" as="geometry" />
        </mxCell>
        <mxCell id="aTDH64eMhzKc28g5l6rG-104" value="" style="edgeStyle=orthogonalEdgeStyle;rounded=0;orthogonalLoop=1;jettySize=auto;html=1;" parent="1" source="aTDH64eMhzKc28g5l6rG-105" target="aTDH64eMhzKc28g5l6rG-109" edge="1">
          <mxGeometry relative="1" as="geometry" />
        </mxCell>
        <mxCell id="aTDH64eMhzKc28g5l6rG-105" value="Command" style="rounded=0;whiteSpace=wrap;html=1;" parent="1" vertex="1">
          <mxGeometry x="30" y="852.5" width="90" height="35" as="geometry" />
        </mxCell>
        <mxCell id="aTDH64eMhzKc28g5l6rG-106" value="" style="edgeStyle=orthogonalEdgeStyle;rounded=0;orthogonalLoop=1;jettySize=auto;html=1;" parent="1" source="aTDH64eMhzKc28g5l6rG-107" target="aTDH64eMhzKc28g5l6rG-109" edge="1">
          <mxGeometry relative="1" as="geometry" />
        </mxCell>
        <mxCell id="aTDH64eMhzKc28g5l6rG-157" value="" style="edgeStyle=orthogonalEdgeStyle;rounded=0;orthogonalLoop=1;jettySize=auto;html=1;" parent="1" source="aTDH64eMhzKc28g5l6rG-107" target="aTDH64eMhzKc28g5l6rG-109" edge="1">
          <mxGeometry relative="1" as="geometry" />
        </mxCell>
        <mxCell id="aTDH64eMhzKc28g5l6rG-158" style="edgeStyle=orthogonalEdgeStyle;rounded=0;orthogonalLoop=1;jettySize=auto;html=1;" parent="1" source="aTDH64eMhzKc28g5l6rG-107" edge="1">
          <mxGeometry relative="1" as="geometry">
            <mxPoint x="170" y="1200" as="targetPoint" />
          </mxGeometry>
        </mxCell>
        <mxCell id="aTDH64eMhzKc28g5l6rG-107" value="State m/c" style="ellipse;whiteSpace=wrap;html=1;aspect=fixed;" parent="1" vertex="1">
          <mxGeometry x="150" y="850" width="40" height="40" as="geometry" />
        </mxCell>
        <mxCell id="aTDH64eMhzKc28g5l6rG-108" style="edgeStyle=orthogonalEdgeStyle;rounded=0;orthogonalLoop=1;jettySize=auto;html=1;" parent="1" source="aTDH64eMhzKc28g5l6rG-109" target="aTDH64eMhzKc28g5l6rG-111" edge="1">
          <mxGeometry relative="1" as="geometry" />
        </mxCell>
        <mxCell id="aTDH64eMhzKc28g5l6rG-109" value="Event" style="rounded=0;whiteSpace=wrap;html=1;" parent="1" vertex="1">
          <mxGeometry x="220" y="852.5" width="90" height="35" as="geometry" />
        </mxCell>
        <mxCell id="aTDH64eMhzKc28g5l6rG-110" style="edgeStyle=orthogonalEdgeStyle;rounded=0;orthogonalLoop=1;jettySize=auto;html=1;" parent="1" source="aTDH64eMhzKc28g5l6rG-111" target="aTDH64eMhzKc28g5l6rG-112" edge="1">
          <mxGeometry relative="1" as="geometry" />
        </mxCell>
        <mxCell id="aTDH64eMhzKc28g5l6rG-111" value="" style="ellipse;whiteSpace=wrap;html=1;aspect=fixed;" parent="1" vertex="1">
          <mxGeometry x="340" y="850" width="40" height="40" as="geometry" />
        </mxCell>
        <mxCell id="aTDH64eMhzKc28g5l6rG-112" value="State DB" style="shape=cylinder3;whiteSpace=wrap;html=1;boundedLbl=1;backgroundOutline=1;size=15;" parent="1" vertex="1">
          <mxGeometry x="460" y="840" width="60" height="60" as="geometry" />
        </mxCell>
        <mxCell id="aTDH64eMhzKc28g5l6rG-113" value="" style="rounded=1;whiteSpace=wrap;html=1;" parent="1" vertex="1">
          <mxGeometry x="20" y="915" width="580" height="50" as="geometry" />
        </mxCell>
        <mxCell id="aTDH64eMhzKc28g5l6rG-114" style="edgeStyle=orthogonalEdgeStyle;rounded=0;orthogonalLoop=1;jettySize=auto;html=1;" parent="1" source="aTDH64eMhzKc28g5l6rG-117" target="aTDH64eMhzKc28g5l6rG-119" edge="1">
          <mxGeometry relative="1" as="geometry" />
        </mxCell>
        <mxCell id="aTDH64eMhzKc28g5l6rG-115" style="edgeStyle=orthogonalEdgeStyle;rounded=0;orthogonalLoop=1;jettySize=auto;html=1;entryX=0.5;entryY=1;entryDx=0;entryDy=0;" parent="1" source="aTDH64eMhzKc28g5l6rG-117" target="aTDH64eMhzKc28g5l6rG-138" edge="1">
          <mxGeometry relative="1" as="geometry">
            <Array as="points">
              <mxPoint x="265" y="980" />
              <mxPoint x="650" y="980" />
            </Array>
          </mxGeometry>
        </mxCell>
        <mxCell id="aTDH64eMhzKc28g5l6rG-116" value="11" style="edgeLabel;html=1;align=center;verticalAlign=middle;resizable=0;points=[];" parent="aTDH64eMhzKc28g5l6rG-115" connectable="0" vertex="1">
          <mxGeometry x="-0.0433" y="-1" relative="1" as="geometry">
            <mxPoint x="1" as="offset" />
          </mxGeometry>
        </mxCell>
        <mxCell id="aTDH64eMhzKc28g5l6rG-117" value="Event" style="rounded=0;whiteSpace=wrap;html=1;" parent="1" vertex="1">
          <mxGeometry x="220" y="922.5" width="90" height="35" as="geometry" />
        </mxCell>
        <mxCell id="aTDH64eMhzKc28g5l6rG-118" style="edgeStyle=orthogonalEdgeStyle;rounded=0;orthogonalLoop=1;jettySize=auto;html=1;" parent="1" source="aTDH64eMhzKc28g5l6rG-119" target="aTDH64eMhzKc28g5l6rG-120" edge="1">
          <mxGeometry relative="1" as="geometry" />
        </mxCell>
        <mxCell id="aTDH64eMhzKc28g5l6rG-119" value="" style="ellipse;whiteSpace=wrap;html=1;aspect=fixed;" parent="1" vertex="1">
          <mxGeometry x="340" y="920" width="40" height="40" as="geometry" />
        </mxCell>
        <mxCell id="aTDH64eMhzKc28g5l6rG-120" value="Historical DB for state" style="shape=cylinder3;whiteSpace=wrap;html=1;boundedLbl=1;backgroundOutline=1;size=15;" parent="1" vertex="1">
          <mxGeometry x="459" y="910" width="70" height="60" as="geometry" />
        </mxCell>
        <mxCell id="aTDH64eMhzKc28g5l6rG-121" value="" style="rounded=1;whiteSpace=wrap;html=1;" parent="1" vertex="1">
          <mxGeometry x="20" y="775" width="580" height="50" as="geometry" />
        </mxCell>
        <mxCell id="aTDH64eMhzKc28g5l6rG-122" style="edgeStyle=orthogonalEdgeStyle;rounded=0;orthogonalLoop=1;jettySize=auto;html=1;" parent="1" source="aTDH64eMhzKc28g5l6rG-125" target="aTDH64eMhzKc28g5l6rG-127" edge="1">
          <mxGeometry relative="1" as="geometry" />
        </mxCell>
        <mxCell id="aTDH64eMhzKc28g5l6rG-123" style="edgeStyle=orthogonalEdgeStyle;rounded=0;orthogonalLoop=1;jettySize=auto;html=1;entryX=0.5;entryY=0;entryDx=0;entryDy=0;" parent="1" source="aTDH64eMhzKc28g5l6rG-125" target="aTDH64eMhzKc28g5l6rG-131" edge="1">
          <mxGeometry relative="1" as="geometry">
            <Array as="points">
              <mxPoint x="265" y="760" />
              <mxPoint x="650" y="760" />
            </Array>
          </mxGeometry>
        </mxCell>
        <mxCell id="aTDH64eMhzKc28g5l6rG-124" value="11" style="edgeLabel;html=1;align=center;verticalAlign=middle;resizable=0;points=[];" parent="aTDH64eMhzKc28g5l6rG-123" connectable="0" vertex="1">
          <mxGeometry x="-0.0433" y="-2" relative="1" as="geometry">
            <mxPoint x="1" as="offset" />
          </mxGeometry>
        </mxCell>
        <mxCell id="aTDH64eMhzKc28g5l6rG-125" value="Event" style="rounded=0;whiteSpace=wrap;html=1;" parent="1" vertex="1">
          <mxGeometry x="220" y="782.5" width="90" height="35" as="geometry" />
        </mxCell>
        <mxCell id="aTDH64eMhzKc28g5l6rG-126" style="edgeStyle=orthogonalEdgeStyle;rounded=0;orthogonalLoop=1;jettySize=auto;html=1;" parent="1" source="aTDH64eMhzKc28g5l6rG-127" target="aTDH64eMhzKc28g5l6rG-128" edge="1">
          <mxGeometry relative="1" as="geometry" />
        </mxCell>
        <mxCell id="aTDH64eMhzKc28g5l6rG-127" value="" style="ellipse;whiteSpace=wrap;html=1;aspect=fixed;" parent="1" vertex="1">
          <mxGeometry x="340" y="780" width="40" height="40" as="geometry" />
        </mxCell>
        <mxCell id="aTDH64eMhzKc28g5l6rG-128" value="" style="shape=cylinder3;whiteSpace=wrap;html=1;boundedLbl=1;backgroundOutline=1;size=15;" parent="1" vertex="1">
          <mxGeometry x="460" y="775" width="60" height="50" as="geometry" />
        </mxCell>
        <mxCell id="aTDH64eMhzKc28g5l6rG-129" value="4 Raft" style="edgeStyle=orthogonalEdgeStyle;rounded=0;orthogonalLoop=1;jettySize=auto;html=1;entryX=0.5;entryY=1;entryDx=0;entryDy=0;" parent="1" source="aTDH64eMhzKc28g5l6rG-109" target="aTDH64eMhzKc28g5l6rG-125" edge="1">
          <mxGeometry relative="1" as="geometry" />
        </mxCell>
        <mxCell id="aTDH64eMhzKc28g5l6rG-130" value="4 Raft" style="edgeStyle=orthogonalEdgeStyle;rounded=0;orthogonalLoop=1;jettySize=auto;html=1;" parent="1" source="aTDH64eMhzKc28g5l6rG-109" target="aTDH64eMhzKc28g5l6rG-117" edge="1">
          <mxGeometry relative="1" as="geometry" />
        </mxCell>
        <mxCell id="aTDH64eMhzKc28g5l6rG-131" value="" style="ellipse;whiteSpace=wrap;html=1;aspect=fixed;" parent="1" vertex="1">
          <mxGeometry x="630" y="780" width="40" height="40" as="geometry" />
        </mxCell>
        <mxCell id="aTDH64eMhzKc28g5l6rG-132" value="" style="shape=cylinder3;whiteSpace=wrap;html=1;boundedLbl=1;backgroundOutline=1;size=15;" parent="1" vertex="1">
          <mxGeometry x="730" y="780" width="30" height="40" as="geometry" />
        </mxCell>
        <mxCell id="aTDH64eMhzKc28g5l6rG-133" style="edgeStyle=orthogonalEdgeStyle;rounded=0;orthogonalLoop=1;jettySize=auto;html=1;entryX=0;entryY=0.5;entryDx=0;entryDy=0;entryPerimeter=0;" parent="1" source="aTDH64eMhzKc28g5l6rG-131" target="aTDH64eMhzKc28g5l6rG-132" edge="1">
          <mxGeometry relative="1" as="geometry" />
        </mxCell>
        <mxCell id="aTDH64eMhzKc28g5l6rG-134" value="" style="ellipse;whiteSpace=wrap;html=1;aspect=fixed;" parent="1" vertex="1">
          <mxGeometry x="630" y="847.5" width="40" height="40" as="geometry" />
        </mxCell>
        <mxCell id="aTDH64eMhzKc28g5l6rG-135" value="12&amp;nbsp; Push latest status to reverse proxy in real-time" style="edgeLabel;html=1;align=center;verticalAlign=middle;resizable=0;points=[];" parent="1" connectable="0" vertex="1">
          <mxGeometry x="387.5" y="1044" as="geometry" />
        </mxCell>
        <mxCell id="aTDH64eMhzKc28g5l6rG-153" style="edgeStyle=orthogonalEdgeStyle;rounded=0;orthogonalLoop=1;jettySize=auto;html=1;entryX=0.5;entryY=1;entryDx=0;entryDy=0;" parent="1" source="aTDH64eMhzKc28g5l6rG-136" target="aTDH64eMhzKc28g5l6rG-148" edge="1">
          <mxGeometry relative="1" as="geometry">
            <Array as="points">
              <mxPoint x="870" y="868" />
              <mxPoint x="870" y="1050" />
              <mxPoint x="-70" y="1050" />
            </Array>
          </mxGeometry>
        </mxCell>
        <mxCell id="aTDH64eMhzKc28g5l6rG-136" value="" style="shape=cylinder3;whiteSpace=wrap;html=1;boundedLbl=1;backgroundOutline=1;size=15;" parent="1" vertex="1">
          <mxGeometry x="730" y="847.5" width="30" height="40" as="geometry" />
        </mxCell>
        <mxCell id="aTDH64eMhzKc28g5l6rG-137" style="edgeStyle=orthogonalEdgeStyle;rounded=0;orthogonalLoop=1;jettySize=auto;html=1;entryX=0;entryY=0.5;entryDx=0;entryDy=0;entryPerimeter=0;" parent="1" source="aTDH64eMhzKc28g5l6rG-134" target="aTDH64eMhzKc28g5l6rG-136" edge="1">
          <mxGeometry relative="1" as="geometry" />
        </mxCell>
        <mxCell id="aTDH64eMhzKc28g5l6rG-138" value="" style="ellipse;whiteSpace=wrap;html=1;aspect=fixed;" parent="1" vertex="1">
          <mxGeometry x="630" y="920" width="40" height="40" as="geometry" />
        </mxCell>
        <mxCell id="aTDH64eMhzKc28g5l6rG-139" value="" style="shape=cylinder3;whiteSpace=wrap;html=1;boundedLbl=1;backgroundOutline=1;size=15;" parent="1" vertex="1">
          <mxGeometry x="730" y="920" width="30" height="40" as="geometry" />
        </mxCell>
        <mxCell id="aTDH64eMhzKc28g5l6rG-140" style="edgeStyle=orthogonalEdgeStyle;rounded=0;orthogonalLoop=1;jettySize=auto;html=1;entryX=0;entryY=0.5;entryDx=0;entryDy=0;entryPerimeter=0;" parent="1" source="aTDH64eMhzKc28g5l6rG-138" target="aTDH64eMhzKc28g5l6rG-139" edge="1">
          <mxGeometry relative="1" as="geometry" />
        </mxCell>
        <mxCell id="aTDH64eMhzKc28g5l6rG-141" value="" style="endArrow=none;dashed=1;html=1;dashPattern=1 3;strokeWidth=2;rounded=0;" parent="1" edge="1">
          <mxGeometry width="50" height="50" relative="1" as="geometry">
            <mxPoint x="610" y="1045" as="sourcePoint" />
            <mxPoint x="610" y="625" as="targetPoint" />
          </mxGeometry>
        </mxCell>
        <mxCell id="aTDH64eMhzKc28g5l6rG-142" value="Write" style="text;html=1;align=center;verticalAlign=middle;whiteSpace=wrap;rounded=0;" parent="1" vertex="1">
          <mxGeometry x="245" y="695" width="130" height="30" as="geometry" />
        </mxCell>
        <mxCell id="aTDH64eMhzKc28g5l6rG-143" value="Read" style="text;html=1;align=center;verticalAlign=middle;whiteSpace=wrap;rounded=0;" parent="1" vertex="1">
          <mxGeometry x="640" y="695" width="130" height="30" as="geometry" />
        </mxCell>
        <mxCell id="aTDH64eMhzKc28g5l6rG-144" value="" style="endArrow=none;dashed=1;html=1;dashPattern=1 3;strokeWidth=2;rounded=0;" parent="1" edge="1">
          <mxGeometry width="50" height="50" relative="1" as="geometry">
            <mxPoint x="780" y="1040" as="sourcePoint" />
            <mxPoint x="780" y="620" as="targetPoint" />
          </mxGeometry>
        </mxCell>
        <mxCell id="aTDH64eMhzKc28g5l6rG-151" style="edgeStyle=orthogonalEdgeStyle;rounded=0;orthogonalLoop=1;jettySize=auto;html=1;entryX=0;entryY=0.5;entryDx=0;entryDy=0;" parent="1" source="aTDH64eMhzKc28g5l6rG-148" target="aTDH64eMhzKc28g5l6rG-105" edge="1">
          <mxGeometry relative="1" as="geometry" />
        </mxCell>
        <mxCell id="aTDH64eMhzKc28g5l6rG-152" value="10" style="edgeLabel;html=1;align=center;verticalAlign=middle;resizable=0;points=[];" parent="aTDH64eMhzKc28g5l6rG-151" connectable="0" vertex="1">
          <mxGeometry x="-0.3647" y="-2" relative="1" as="geometry">
            <mxPoint as="offset" />
          </mxGeometry>
        </mxCell>
        <mxCell id="aTDH64eMhzKc28g5l6rG-148" value="Reverse Proxy" style="ellipse;whiteSpace=wrap;html=1;aspect=fixed;" parent="1" vertex="1">
          <mxGeometry x="-90" y="845" width="40" height="40" as="geometry" />
        </mxCell>
        <mxCell id="aTDH64eMhzKc28g5l6rG-154" style="edgeStyle=orthogonalEdgeStyle;rounded=0;orthogonalLoop=1;jettySize=auto;html=1;entryX=0.5;entryY=1;entryDx=0;entryDy=0;entryPerimeter=0;" parent="1" source="aTDH64eMhzKc28g5l6rG-102" target="aTDH64eMhzKc28g5l6rG-8" edge="1">
          <mxGeometry relative="1" as="geometry">
            <Array as="points">
              <mxPoint x="-100" y="660" />
              <mxPoint x="-100" y="320" />
            </Array>
            <mxPoint x="-30" y="672.5" as="sourcePoint" />
            <mxPoint x="-130" y="332.5" as="targetPoint" />
          </mxGeometry>
        </mxCell>
        <mxCell id="aTDH64eMhzKc28g5l6rG-155" style="edgeStyle=orthogonalEdgeStyle;rounded=0;orthogonalLoop=1;jettySize=auto;html=1;entryX=0.613;entryY=1;entryDx=0;entryDy=0;entryPerimeter=0;" parent="1" source="aTDH64eMhzKc28g5l6rG-148" target="aTDH64eMhzKc28g5l6rG-25" edge="1">
          <mxGeometry relative="1" as="geometry" />
        </mxCell>
        <mxCell id="aTDH64eMhzKc28g5l6rG-156" value="13 Response" style="edgeLabel;html=1;align=center;verticalAlign=middle;resizable=0;points=[];" parent="aTDH64eMhzKc28g5l6rG-155" connectable="0" vertex="1">
          <mxGeometry x="0.1257" relative="1" as="geometry">
            <mxPoint as="offset" />
          </mxGeometry>
        </mxCell>
        <mxCell id="aTDH64eMhzKc28g5l6rG-159" value="" style="rounded=1;whiteSpace=wrap;html=1;" parent="1" vertex="1">
          <mxGeometry x="-30" y="1200" width="500" height="230" as="geometry" />
        </mxCell>
        <mxCell id="aTDH64eMhzKc28g5l6rG-160" value="Memory" style="text;html=1;align=center;verticalAlign=middle;resizable=0;points=[];autosize=1;strokeColor=none;fillColor=none;" parent="1" vertex="1">
          <mxGeometry x="105" y="1188" width="70" height="30" as="geometry" />
        </mxCell>
        <mxCell id="aTDH64eMhzKc28g5l6rG-165" style="edgeStyle=orthogonalEdgeStyle;rounded=0;orthogonalLoop=1;jettySize=auto;html=1;" parent="1" source="aTDH64eMhzKc28g5l6rG-161" target="aTDH64eMhzKc28g5l6rG-164" edge="1">
          <mxGeometry relative="1" as="geometry" />
        </mxCell>
        <mxCell id="aTDH64eMhzKc28g5l6rG-161" value="Command" style="rounded=0;whiteSpace=wrap;html=1;" parent="1" vertex="1">
          <mxGeometry y="1282" width="90" height="35" as="geometry" />
        </mxCell>
        <mxCell id="aTDH64eMhzKc28g5l6rG-163" value="Event" style="rounded=0;whiteSpace=wrap;html=1;" parent="1" vertex="1">
          <mxGeometry x="310" y="1283" width="90" height="35" as="geometry" />
        </mxCell>
        <mxCell id="aTDH64eMhzKc28g5l6rG-166" style="edgeStyle=orthogonalEdgeStyle;rounded=0;orthogonalLoop=1;jettySize=auto;html=1;" parent="1" source="aTDH64eMhzKc28g5l6rG-164" target="aTDH64eMhzKc28g5l6rG-163" edge="1">
          <mxGeometry relative="1" as="geometry" />
        </mxCell>
        <mxCell id="aTDH64eMhzKc28g5l6rG-168" style="edgeStyle=orthogonalEdgeStyle;rounded=0;orthogonalLoop=1;jettySize=auto;html=1;" parent="1" source="aTDH64eMhzKc28g5l6rG-164" target="aTDH64eMhzKc28g5l6rG-167" edge="1">
          <mxGeometry relative="1" as="geometry" />
        </mxCell>
        <mxCell id="aTDH64eMhzKc28g5l6rG-164" value="State m/c" style="ellipse;whiteSpace=wrap;html=1;aspect=fixed;" parent="1" vertex="1">
          <mxGeometry x="180" y="1280" width="40" height="40" as="geometry" />
        </mxCell>
        <mxCell id="aTDH64eMhzKc28g5l6rG-167" value="State DB" style="shape=cylinder3;whiteSpace=wrap;html=1;boundedLbl=1;backgroundOutline=1;size=15;" parent="1" vertex="1">
          <mxGeometry x="167.5" y="1350" width="65" height="50" as="geometry" />
        </mxCell>
        <mxCell id="aTDH64eMhzKc28g5l6rG-169" value="In Memory Cache" style="text;html=1;align=center;verticalAlign=middle;resizable=0;points=[];autosize=1;strokeColor=none;fillColor=none;" parent="1" vertex="1">
          <mxGeometry x="215" y="1360" width="120" height="30" as="geometry" />
        </mxCell>
        <mxCell id="aTDH64eMhzKc28g5l6rG-170" value="" style="rounded=1;whiteSpace=wrap;html=1;" parent="1" vertex="1">
          <mxGeometry x="-30" y="1460" width="500" height="230" as="geometry" />
        </mxCell>
        <mxCell id="aTDH64eMhzKc28g5l6rG-171" value="Command File" style="rounded=0;whiteSpace=wrap;html=1;" parent="1" vertex="1">
          <mxGeometry x="15" y="1520" width="60" height="80" as="geometry" />
        </mxCell>
        <mxCell id="aTDH64eMhzKc28g5l6rG-172" value="StateFile" style="rounded=0;whiteSpace=wrap;html=1;" parent="1" vertex="1">
          <mxGeometry x="170" y="1520" width="60" height="80" as="geometry" />
        </mxCell>
        <mxCell id="aTDH64eMhzKc28g5l6rG-173" value="Event File" style="rounded=0;whiteSpace=wrap;html=1;" parent="1" vertex="1">
          <mxGeometry x="325" y="1520" width="60" height="80" as="geometry" />
        </mxCell>
        <mxCell id="aTDH64eMhzKc28g5l6rG-175" style="edgeStyle=orthogonalEdgeStyle;rounded=0;orthogonalLoop=1;jettySize=auto;html=1;" parent="1" source="aTDH64eMhzKc28g5l6rG-161" target="aTDH64eMhzKc28g5l6rG-171" edge="1">
          <mxGeometry relative="1" as="geometry" />
        </mxCell>
        <mxCell id="aTDH64eMhzKc28g5l6rG-176" value="MMAP" style="edgeLabel;html=1;align=center;verticalAlign=middle;resizable=0;points=[];" parent="aTDH64eMhzKc28g5l6rG-175" connectable="0" vertex="1">
          <mxGeometry x="0.2571" relative="1" as="geometry">
            <mxPoint as="offset" />
          </mxGeometry>
        </mxCell>
        <mxCell id="aTDH64eMhzKc28g5l6rG-180" style="edgeStyle=orthogonalEdgeStyle;rounded=0;orthogonalLoop=1;jettySize=auto;html=1;" parent="1" source="aTDH64eMhzKc28g5l6rG-163" target="aTDH64eMhzKc28g5l6rG-173" edge="1">
          <mxGeometry relative="1" as="geometry" />
        </mxCell>
        <mxCell id="aTDH64eMhzKc28g5l6rG-181" value="MMAP" style="edgeLabel;html=1;align=center;verticalAlign=middle;resizable=0;points=[];" parent="aTDH64eMhzKc28g5l6rG-180" connectable="0" vertex="1">
          <mxGeometry x="0.3" y="-2" relative="1" as="geometry">
            <mxPoint as="offset" />
          </mxGeometry>
        </mxCell>
        <mxCell id="aTDH64eMhzKc28g5l6rG-179" style="edgeStyle=orthogonalEdgeStyle;rounded=0;orthogonalLoop=1;jettySize=auto;html=1;entryX=0.5;entryY=0;entryDx=0;entryDy=0;" parent="1" source="aTDH64eMhzKc28g5l6rG-167" target="aTDH64eMhzKc28g5l6rG-172" edge="1">
          <mxGeometry relative="1" as="geometry" />
        </mxCell>
        <mxCell id="aTDH64eMhzKc28g5l6rG-182" value="MMAP" style="edgeLabel;html=1;align=center;verticalAlign=middle;resizable=0;points=[];" parent="aTDH64eMhzKc28g5l6rG-179" connectable="0" vertex="1">
          <mxGeometry x="-0.3" y="4" relative="1" as="geometry">
            <mxPoint as="offset" />
          </mxGeometry>
        </mxCell>
        <mxCell id="aTDH64eMhzKc28g5l6rG-183" value="Serv 1 / Follower" style="text;html=1;align=center;verticalAlign=middle;whiteSpace=wrap;rounded=0;" parent="1" vertex="1">
          <mxGeometry x="10" y="750" width="130" height="30" as="geometry" />
        </mxCell>
        <mxCell id="aTDH64eMhzKc28g5l6rG-184" value="Serv 2" style="text;html=1;align=center;verticalAlign=middle;whiteSpace=wrap;rounded=0;" parent="1" vertex="1">
          <mxGeometry x="10" y="830" width="130" height="30" as="geometry" />
        </mxCell>
        <mxCell id="aTDH64eMhzKc28g5l6rG-185" value="Serv n/ Follwer" style="text;html=1;align=center;verticalAlign=middle;whiteSpace=wrap;rounded=0;" parent="1" vertex="1">
          <mxGeometry y="895" width="130" height="30" as="geometry" />
        </mxCell>
        <mxCell id="aTDH64eMhzKc28g5l6rG-186" value="This can be Kafka howerver we wanted to save network traverse time.&lt;br&gt;&lt;br&gt;We move queut to be on memory and serialize it to disk using mmap Technique" style="text;html=1;align=center;verticalAlign=middle;whiteSpace=wrap;rounded=0;" parent="1" vertex="1">
          <mxGeometry x="-450" y="920" width="240" height="125" as="geometry" />
        </mxCell>
        <mxCell id="aTDH64eMhzKc28g5l6rG-187" value="" style="endArrow=classic;html=1;rounded=0;" parent="1" source="aTDH64eMhzKc28g5l6rG-186" target="aTDH64eMhzKc28g5l6rG-105" edge="1">
          <mxGeometry width="50" height="50" relative="1" as="geometry">
            <mxPoint x="-190" y="1000" as="sourcePoint" />
            <mxPoint x="-140" y="950" as="targetPoint" />
          </mxGeometry>
        </mxCell>
        <mxCell id="aTDH64eMhzKc28g5l6rG-190" value="Disk" style="text;html=1;align=center;verticalAlign=middle;resizable=0;points=[];autosize=1;strokeColor=none;fillColor=none;" parent="1" vertex="1">
          <mxGeometry x="100" y="1450" width="50" height="30" as="geometry" />
        </mxCell>
        <mxCell id="aTDH64eMhzKc28g5l6rG-191" value="Query" style="shape=umlActor;verticalLabelPosition=bottom;verticalAlign=top;html=1;outlineConnect=0;" parent="1" vertex="1">
          <mxGeometry x="1010" y="484" width="30" height="60" as="geometry" />
        </mxCell>
        <mxCell id="aTDH64eMhzKc28g5l6rG-194" style="edgeStyle=orthogonalEdgeStyle;rounded=0;orthogonalLoop=1;jettySize=auto;html=1;entryX=1;entryY=0;entryDx=0;entryDy=17.5;entryPerimeter=0;" parent="1" source="aTDH64eMhzKc28g5l6rG-191" target="aTDH64eMhzKc28g5l6rG-70" edge="1">
          <mxGeometry relative="1" as="geometry" />
        </mxCell>
        <mxCell id="aTDH64eMhzKc28g5l6rG-195" style="edgeStyle=orthogonalEdgeStyle;rounded=0;orthogonalLoop=1;jettySize=auto;html=1;entryX=1;entryY=1;entryDx=0;entryDy=-15;entryPerimeter=0;" parent="1" source="aTDH64eMhzKc28g5l6rG-191" target="aTDH64eMhzKc28g5l6rG-132" edge="1">
          <mxGeometry relative="1" as="geometry" />
        </mxCell>
        <mxCell id="aTDH64eMhzKc28g5l6rG-196" value="Serv 1/ Follower" style="text;html=1;align=center;verticalAlign=middle;whiteSpace=wrap;rounded=0;" parent="1" vertex="1">
          <mxGeometry x="-10" y="260" width="130" height="30" as="geometry" />
        </mxCell>
        <mxCell id="aTDH64eMhzKc28g5l6rG-197" value="Serv n/ Follwer" style="text;html=1;align=center;verticalAlign=middle;whiteSpace=wrap;rounded=0;" parent="1" vertex="1">
          <mxGeometry y="410" width="130" height="30" as="geometry" />
        </mxCell>
        <mxCell id="aTDH64eMhzKc28g5l6rG-199" style="edgeStyle=orthogonalEdgeStyle;rounded=0;orthogonalLoop=1;jettySize=auto;html=1;entryX=0.619;entryY=-0.006;entryDx=0;entryDy=0;entryPerimeter=0;" parent="1" source="gIsAO9YqK1bIzBQVH5LV-3" target="aTDH64eMhzKc28g5l6rG-13" edge="1">
          <mxGeometry relative="1" as="geometry">
            <Array as="points">
              <mxPoint x="1060" y="165" />
            </Array>
          </mxGeometry>
        </mxCell>
        <mxCell id="YppnX6lDdSpga8ntmvUr-1" value="&lt;h1 style=&quot;margin-top: 0px;&quot;&gt;&lt;span style=&quot;background-color: initial;&quot;&gt;APIs&lt;br&gt;&lt;/span&gt;&lt;span style=&quot;background-color: initial; font-size: 12px; font-weight: normal;&quot;&gt;- POST /v1/wallet/balance_transfer {from, to, amount, currency, ..}&lt;/span&gt;&lt;/h1&gt;" style="text;html=1;whiteSpace=wrap;overflow=hidden;rounded=0;" parent="1" vertex="1">
          <mxGeometry x="140" y="-840" width="350" height="162.5" as="geometry" />
        </mxCell>
        <mxCell id="wyu4AdQ__Pr_zeic_Puu-6" value="" style="edgeStyle=orthogonalEdgeStyle;rounded=0;orthogonalLoop=1;jettySize=auto;html=1;" edge="1" parent="1" source="wyu4AdQ__Pr_zeic_Puu-1" target="wyu4AdQ__Pr_zeic_Puu-2">
          <mxGeometry relative="1" as="geometry" />
        </mxCell>
        <mxCell id="wyu4AdQ__Pr_zeic_Puu-9" value="$1 from A -&amp;gt; B" style="edgeLabel;html=1;align=center;verticalAlign=middle;resizable=0;points=[];" vertex="1" connectable="0" parent="wyu4AdQ__Pr_zeic_Puu-6">
          <mxGeometry x="0.0667" relative="1" as="geometry">
            <mxPoint as="offset" />
          </mxGeometry>
        </mxCell>
        <mxCell id="wyu4AdQ__Pr_zeic_Puu-1" value="Actor" style="shape=umlActor;verticalLabelPosition=bottom;verticalAlign=top;html=1;outlineConnect=0;" vertex="1" parent="1">
          <mxGeometry x="420" y="-700" width="15" height="40" as="geometry" />
        </mxCell>
        <mxCell id="wyu4AdQ__Pr_zeic_Puu-7" value="" style="edgeStyle=orthogonalEdgeStyle;rounded=0;orthogonalLoop=1;jettySize=auto;html=1;" edge="1" parent="1" source="wyu4AdQ__Pr_zeic_Puu-2" target="wyu4AdQ__Pr_zeic_Puu-3">
          <mxGeometry relative="1" as="geometry" />
        </mxCell>
        <mxCell id="wyu4AdQ__Pr_zeic_Puu-2" value="Webserver" style="rounded=1;whiteSpace=wrap;html=1;" vertex="1" parent="1">
          <mxGeometry x="375" y="-570" width="105" height="40" as="geometry" />
        </mxCell>
        <mxCell id="wyu4AdQ__Pr_zeic_Puu-5" value="" style="edgeStyle=orthogonalEdgeStyle;rounded=0;orthogonalLoop=1;jettySize=auto;html=1;" edge="1" parent="1" source="wyu4AdQ__Pr_zeic_Puu-3" target="wyu4AdQ__Pr_zeic_Puu-4">
          <mxGeometry relative="1" as="geometry" />
        </mxCell>
        <mxCell id="wyu4AdQ__Pr_zeic_Puu-10" value="(1)In which partition/server&lt;br&gt;&amp;nbsp;is A and B accounts" style="edgeLabel;html=1;align=center;verticalAlign=middle;resizable=0;points=[];" vertex="1" connectable="0" parent="wyu4AdQ__Pr_zeic_Puu-5">
          <mxGeometry x="-0.2145" y="2" relative="1" as="geometry">
            <mxPoint as="offset" />
          </mxGeometry>
        </mxCell>
        <mxCell id="wyu4AdQ__Pr_zeic_Puu-13" style="edgeStyle=orthogonalEdgeStyle;rounded=0;orthogonalLoop=1;jettySize=auto;html=1;" edge="1" parent="1" source="wyu4AdQ__Pr_zeic_Puu-3" target="wyu4AdQ__Pr_zeic_Puu-12">
          <mxGeometry relative="1" as="geometry" />
        </mxCell>
        <mxCell id="wyu4AdQ__Pr_zeic_Puu-14" value="(2) store current &lt;br&gt;request status" style="edgeLabel;html=1;align=center;verticalAlign=middle;resizable=0;points=[];" vertex="1" connectable="0" parent="wyu4AdQ__Pr_zeic_Puu-13">
          <mxGeometry x="0.3744" y="1" relative="1" as="geometry">
            <mxPoint as="offset" />
          </mxGeometry>
        </mxCell>
        <mxCell id="wyu4AdQ__Pr_zeic_Puu-3" value="CoordinatorSaga" style="rounded=1;whiteSpace=wrap;html=1;" vertex="1" parent="1">
          <mxGeometry x="375" y="-480" width="105" height="40" as="geometry" />
        </mxCell>
        <mxCell id="wyu4AdQ__Pr_zeic_Puu-4" value="Zookeeper" style="rounded=1;whiteSpace=wrap;html=1;" vertex="1" parent="1">
          <mxGeometry x="780" y="-485" width="60" height="50" as="geometry" />
        </mxCell>
        <mxCell id="wyu4AdQ__Pr_zeic_Puu-12" value="Transaction Status" style="shape=cylinder3;whiteSpace=wrap;html=1;boundedLbl=1;backgroundOutline=1;size=15;" vertex="1" parent="1">
          <mxGeometry x="120" y="-500" width="60" height="80" as="geometry" />
        </mxCell>
        <mxCell id="wyu4AdQ__Pr_zeic_Puu-42" value="" style="edgeStyle=orthogonalEdgeStyle;rounded=0;orthogonalLoop=1;jettySize=auto;html=1;" edge="1" parent="1" source="wyu4AdQ__Pr_zeic_Puu-15" target="wyu4AdQ__Pr_zeic_Puu-41">
          <mxGeometry relative="1" as="geometry" />
        </mxCell>
        <mxCell id="wyu4AdQ__Pr_zeic_Puu-47" value="(3.a) Validate" style="edgeLabel;html=1;align=center;verticalAlign=middle;resizable=0;points=[];" vertex="1" connectable="0" parent="wyu4AdQ__Pr_zeic_Puu-42">
          <mxGeometry x="0.1143" y="-2" relative="1" as="geometry">
            <mxPoint as="offset" />
          </mxGeometry>
        </mxCell>
        <mxCell id="wyu4AdQ__Pr_zeic_Puu-63" style="edgeStyle=orthogonalEdgeStyle;rounded=0;orthogonalLoop=1;jettySize=auto;html=1;entryX=0;entryY=0.5;entryDx=0;entryDy=0;" edge="1" parent="1" source="wyu4AdQ__Pr_zeic_Puu-15" target="wyu4AdQ__Pr_zeic_Puu-61">
          <mxGeometry relative="1" as="geometry">
            <Array as="points">
              <mxPoint x="550" y="-350" />
              <mxPoint x="550" y="-280" />
            </Array>
          </mxGeometry>
        </mxCell>
        <mxCell id="wyu4AdQ__Pr_zeic_Puu-64" style="edgeStyle=orthogonalEdgeStyle;rounded=0;orthogonalLoop=1;jettySize=auto;html=1;entryX=0;entryY=0.5;entryDx=0;entryDy=0;" edge="1" parent="1" source="wyu4AdQ__Pr_zeic_Puu-15" target="wyu4AdQ__Pr_zeic_Puu-62">
          <mxGeometry relative="1" as="geometry">
            <Array as="points">
              <mxPoint x="550" y="-350" />
              <mxPoint x="550" y="-170" />
              <mxPoint x="570" y="-170" />
            </Array>
          </mxGeometry>
        </mxCell>
        <mxCell id="wyu4AdQ__Pr_zeic_Puu-15" value="Server1 contains A" style="whiteSpace=wrap;html=1;rounded=1;" vertex="1" parent="1">
          <mxGeometry x="590" y="-380" width="120" height="60" as="geometry" />
        </mxCell>
        <mxCell id="wyu4AdQ__Pr_zeic_Puu-17" value="" style="endArrow=classic;html=1;rounded=0;exitX=0.829;exitY=1.025;exitDx=0;exitDy=0;exitPerimeter=0;entryX=0.158;entryY=0.033;entryDx=0;entryDy=0;entryPerimeter=0;" edge="1" parent="1" source="wyu4AdQ__Pr_zeic_Puu-3" target="wyu4AdQ__Pr_zeic_Puu-15">
          <mxGeometry width="50" height="50" relative="1" as="geometry">
            <mxPoint x="460" y="-330" as="sourcePoint" />
            <mxPoint x="510" y="-380" as="targetPoint" />
          </mxGeometry>
        </mxCell>
        <mxCell id="wyu4AdQ__Pr_zeic_Puu-18" value="(3) send command -1$ from A" style="edgeLabel;html=1;align=center;verticalAlign=middle;resizable=0;points=[];" vertex="1" connectable="0" parent="wyu4AdQ__Pr_zeic_Puu-17">
          <mxGeometry x="0.083" y="4" relative="1" as="geometry">
            <mxPoint as="offset" />
          </mxGeometry>
        </mxCell>
        <mxCell id="wyu4AdQ__Pr_zeic_Puu-44" value="" style="edgeStyle=orthogonalEdgeStyle;rounded=0;orthogonalLoop=1;jettySize=auto;html=1;" edge="1" parent="1" source="wyu4AdQ__Pr_zeic_Puu-41" target="wyu4AdQ__Pr_zeic_Puu-43">
          <mxGeometry relative="1" as="geometry" />
        </mxCell>
        <mxCell id="wyu4AdQ__Pr_zeic_Puu-49" value="" style="edgeStyle=orthogonalEdgeStyle;rounded=0;orthogonalLoop=1;jettySize=auto;html=1;" edge="1" parent="1" source="wyu4AdQ__Pr_zeic_Puu-41" target="wyu4AdQ__Pr_zeic_Puu-31">
          <mxGeometry relative="1" as="geometry" />
        </mxCell>
        <mxCell id="wyu4AdQ__Pr_zeic_Puu-41" value="Command" style="ellipse;whiteSpace=wrap;html=1;rounded=1;" vertex="1" parent="1">
          <mxGeometry x="910" y="-390" width="80" height="80" as="geometry" />
        </mxCell>
        <mxCell id="wyu4AdQ__Pr_zeic_Puu-46" value="" style="edgeStyle=orthogonalEdgeStyle;rounded=0;orthogonalLoop=1;jettySize=auto;html=1;" edge="1" parent="1" source="wyu4AdQ__Pr_zeic_Puu-43" target="wyu4AdQ__Pr_zeic_Puu-45">
          <mxGeometry relative="1" as="geometry" />
        </mxCell>
        <mxCell id="wyu4AdQ__Pr_zeic_Puu-55" value="" style="edgeStyle=orthogonalEdgeStyle;rounded=0;orthogonalLoop=1;jettySize=auto;html=1;" edge="1" parent="1" source="wyu4AdQ__Pr_zeic_Puu-43" target="wyu4AdQ__Pr_zeic_Puu-51">
          <mxGeometry relative="1" as="geometry" />
        </mxCell>
        <mxCell id="wyu4AdQ__Pr_zeic_Puu-43" value="State" style="ellipse;whiteSpace=wrap;html=1;rounded=1;fontStyle=0" vertex="1" parent="1">
          <mxGeometry x="1030" y="-390" width="80" height="80" as="geometry" />
        </mxCell>
        <mxCell id="wyu4AdQ__Pr_zeic_Puu-54" value="" style="edgeStyle=orthogonalEdgeStyle;rounded=0;orthogonalLoop=1;jettySize=auto;html=1;" edge="1" parent="1" source="wyu4AdQ__Pr_zeic_Puu-45" target="wyu4AdQ__Pr_zeic_Puu-53">
          <mxGeometry relative="1" as="geometry" />
        </mxCell>
        <mxCell id="wyu4AdQ__Pr_zeic_Puu-45" value="List of Event" style="ellipse;whiteSpace=wrap;html=1;rounded=1;fontStyle=0" vertex="1" parent="1">
          <mxGeometry x="1165" y="-390" width="80" height="80" as="geometry" />
        </mxCell>
        <mxCell id="wyu4AdQ__Pr_zeic_Puu-56" value="" style="group" vertex="1" connectable="0" parent="1">
          <mxGeometry x="880" y="-270" width="100" height="90" as="geometry" />
        </mxCell>
        <mxCell id="wyu4AdQ__Pr_zeic_Puu-48" value="" style="shape=cylinder3;whiteSpace=wrap;html=1;boundedLbl=1;backgroundOutline=1;size=15;" vertex="1" parent="wyu4AdQ__Pr_zeic_Puu-56">
          <mxGeometry y="10" width="60" height="80" as="geometry" />
        </mxCell>
        <mxCell id="wyu4AdQ__Pr_zeic_Puu-31" value="Store data either in file locally or DB" style="rounded=0;whiteSpace=wrap;html=1;" vertex="1" parent="wyu4AdQ__Pr_zeic_Puu-56">
          <mxGeometry x="40" width="60" height="80" as="geometry" />
        </mxCell>
        <mxCell id="wyu4AdQ__Pr_zeic_Puu-57" value="" style="group" vertex="1" connectable="0" parent="1">
          <mxGeometry x="1000" y="-270" width="100" height="90" as="geometry" />
        </mxCell>
        <mxCell id="wyu4AdQ__Pr_zeic_Puu-50" value="" style="shape=cylinder3;whiteSpace=wrap;html=1;boundedLbl=1;backgroundOutline=1;size=15;" vertex="1" parent="wyu4AdQ__Pr_zeic_Puu-57">
          <mxGeometry y="10" width="60" height="80" as="geometry" />
        </mxCell>
        <mxCell id="wyu4AdQ__Pr_zeic_Puu-51" value="Store data either in file locally or DB" style="rounded=0;whiteSpace=wrap;html=1;" vertex="1" parent="wyu4AdQ__Pr_zeic_Puu-57">
          <mxGeometry x="40" width="60" height="80" as="geometry" />
        </mxCell>
        <mxCell id="wyu4AdQ__Pr_zeic_Puu-58" value="" style="group" vertex="1" connectable="0" parent="1">
          <mxGeometry x="1150" y="-270" width="85" height="100" as="geometry" />
        </mxCell>
        <mxCell id="wyu4AdQ__Pr_zeic_Puu-52" value="" style="shape=cylinder3;whiteSpace=wrap;html=1;boundedLbl=1;backgroundOutline=1;size=15;" vertex="1" parent="wyu4AdQ__Pr_zeic_Puu-58">
          <mxGeometry y="20" width="60" height="80" as="geometry" />
        </mxCell>
        <mxCell id="wyu4AdQ__Pr_zeic_Puu-53" value="Store data either in file locally or DB" style="rounded=0;whiteSpace=wrap;html=1;" vertex="1" parent="wyu4AdQ__Pr_zeic_Puu-58">
          <mxGeometry x="25" width="60" height="80" as="geometry" />
        </mxCell>
        <mxCell id="wyu4AdQ__Pr_zeic_Puu-60" value="In Memory and local file then DB" style="text;html=1;align=center;verticalAlign=middle;whiteSpace=wrap;rounded=0;" vertex="1" parent="1">
          <mxGeometry x="865" y="-430" width="155" height="30" as="geometry" />
        </mxCell>
        <mxCell id="wyu4AdQ__Pr_zeic_Puu-61" value="Server2 Replica" style="whiteSpace=wrap;html=1;rounded=1;" vertex="1" parent="1">
          <mxGeometry x="590" y="-310" width="120" height="60" as="geometry" />
        </mxCell>
        <mxCell id="wyu4AdQ__Pr_zeic_Puu-62" value="Servern Replica" style="whiteSpace=wrap;html=1;rounded=1;" vertex="1" parent="1">
          <mxGeometry x="590" y="-200" width="120" height="60" as="geometry" />
        </mxCell>
        <mxCell id="wyu4AdQ__Pr_zeic_Puu-65" value="(3.b)&lt;br&gt;&amp;nbsp;RAFT consensus Algorithm" style="edgeLabel;html=1;align=center;verticalAlign=middle;resizable=0;points=[];" vertex="1" connectable="0" parent="1">
          <mxGeometry x="590" y="-320" as="geometry">
            <mxPoint x="-46" y="74" as="offset" />
          </mxGeometry>
        </mxCell>
        <mxCell id="wyu4AdQ__Pr_zeic_Puu-66" value="Status Update Service (CQRS)" style="whiteSpace=wrap;html=1;rounded=1;" vertex="1" parent="1">
          <mxGeometry x="640" y="-90" width="120" height="60" as="geometry" />
        </mxCell>
        <mxCell id="wyu4AdQ__Pr_zeic_Puu-67" style="edgeStyle=orthogonalEdgeStyle;rounded=0;orthogonalLoop=1;jettySize=auto;html=1;entryX=0.5;entryY=1;entryDx=0;entryDy=0;entryPerimeter=0;" edge="1" parent="1" source="wyu4AdQ__Pr_zeic_Puu-66" target="wyu4AdQ__Pr_zeic_Puu-50">
          <mxGeometry relative="1" as="geometry" />
        </mxCell>
        <mxCell id="wyu4AdQ__Pr_zeic_Puu-70" value="(3.c)" style="edgeLabel;html=1;align=center;verticalAlign=middle;resizable=0;points=[];" vertex="1" connectable="0" parent="wyu4AdQ__Pr_zeic_Puu-67">
          <mxGeometry x="-0.7282" relative="1" as="geometry">
            <mxPoint as="offset" />
          </mxGeometry>
        </mxCell>
        <mxCell id="wyu4AdQ__Pr_zeic_Puu-68" style="edgeStyle=orthogonalEdgeStyle;rounded=0;orthogonalLoop=1;jettySize=auto;html=1;entryX=0.381;entryY=1.1;entryDx=0;entryDy=0;entryPerimeter=0;" edge="1" parent="1" source="wyu4AdQ__Pr_zeic_Puu-66" target="wyu4AdQ__Pr_zeic_Puu-3">
          <mxGeometry relative="1" as="geometry" />
        </mxCell>
        <mxCell id="wyu4AdQ__Pr_zeic_Puu-71" value="Read status and&lt;br&gt;update asynchronously" style="edgeLabel;html=1;align=center;verticalAlign=middle;resizable=0;points=[];" vertex="1" connectable="0" parent="wyu4AdQ__Pr_zeic_Puu-68">
          <mxGeometry x="-0.614" y="-1" relative="1" as="geometry">
            <mxPoint as="offset" />
          </mxGeometry>
        </mxCell>
        <mxCell id="wyu4AdQ__Pr_zeic_Puu-73" style="edgeStyle=orthogonalEdgeStyle;rounded=0;orthogonalLoop=1;jettySize=auto;html=1;" edge="1" parent="1" source="wyu4AdQ__Pr_zeic_Puu-72" target="wyu4AdQ__Pr_zeic_Puu-41">
          <mxGeometry relative="1" as="geometry" />
        </mxCell>
        <mxCell id="wyu4AdQ__Pr_zeic_Puu-72" value="This can be Kafka howerver we wanted to save network traverse time.&lt;br&gt;&lt;br&gt;We move queut to be on memory and serialize it to disk using mmap Technique" style="text;html=1;align=center;verticalAlign=middle;whiteSpace=wrap;rounded=0;" vertex="1" parent="1">
          <mxGeometry x="829.5" y="-640" width="240" height="125" as="geometry" />
        </mxCell>
        <mxCell id="wyu4AdQ__Pr_zeic_Puu-74" value="Server2 contains B" style="whiteSpace=wrap;html=1;rounded=1;" vertex="1" parent="1">
          <mxGeometry x="5" y="-300" width="120" height="60" as="geometry" />
        </mxCell>
        <mxCell id="wyu4AdQ__Pr_zeic_Puu-75" value="" style="endArrow=classic;html=1;rounded=0;exitX=0;exitY=1;exitDx=0;exitDy=0;entryX=1;entryY=0;entryDx=0;entryDy=0;" edge="1" parent="1" source="wyu4AdQ__Pr_zeic_Puu-3" target="wyu4AdQ__Pr_zeic_Puu-74">
          <mxGeometry width="50" height="50" relative="1" as="geometry">
            <mxPoint x="472" y="-429" as="sourcePoint" />
            <mxPoint x="619" y="-368" as="targetPoint" />
          </mxGeometry>
        </mxCell>
        <mxCell id="wyu4AdQ__Pr_zeic_Puu-76" value="(4) do same for +1$ for B" style="edgeLabel;html=1;align=center;verticalAlign=middle;resizable=0;points=[];" vertex="1" connectable="0" parent="wyu4AdQ__Pr_zeic_Puu-75">
          <mxGeometry x="0.083" y="4" relative="1" as="geometry">
            <mxPoint as="offset" />
          </mxGeometry>
        </mxCell>
      </root>
    </mxGraphModel>
  </diagram>
</mxfile>
